<svg xmlns="http://www.w3.org/2000/svg" xmlns:xlink="http://www.w3.org/1999/xlink" width="4062" zoomAndPan="magnify" viewBox="544.63 224.23 438.34 75.54" height="700" preserveAspectRatio="xMidYMid meet" version="1.0"><defs><g/><clipPath id="c60db99afb"><path d="M 0 0 L 80 0 L 80 82 L 0 82 Z M 0 0 " clip-rule="nonzero"/></clipPath><clipPath id="4c9f2ac3d9"><path d="M 107 19 L 560 19 L 560 76 L 107 76 Z M 107 19 " clip-rule="nonzero"/></clipPath><clipPath id="c236d53c1e"><rect x="0" width="450" y="0" height="57"/></clipPath><clipPath id="f2293c97b8"><rect x="0" width="570" y="0" height="82"/></clipPath></defs><g transform="matrix(1, 0, 0, 1, 539, 221)"><g clip-path="url(#f2293c97b8)"><g clip-path="url(#c60db99afb)"><g transform="translate(0.879423, 0.709721) scale(0.0807)"><g transform="translate(60,60) scale(0.88)"><path d="M 843.39,628.40 L 808.37,608.95 L 520.43,804.15 L 520.43,998.70 L 845.33,782.75 Z M 30.80,520.10 L 30.80,719.84 L 496.43,1000.00 L 496.43,805.45 Z M 522.37,0.00 L 522.37,195.85 L 968.55,477.30 L 969.20,278.86 Z M 497.73,0.00 L 152.08,225.03 L 154.02,384.57 L 187.74,402.08 L 497.73,196.50 Z" fill="#ffffff"/><path d="M 323.93,498.70 L 506.16,614.79 L 662.45,516.21 L 799.94,590.79 L 818.74,580.42 L 811.61,566.15 L 509.40,381.32 Z" fill="#2D60F6"/></g></g></g><g clip-path="url(#4c9f2ac3d9)"><g transform="matrix(1, 0, 0, 1, 107, 19)"><g clip-path="url(#c236d53c1e)"><g fill="#ffffff" fill-opacity="1"><g transform="translate(0.596286, 40.68811)"><g><path d="M 14.234375 -39.65625 C 15.515625 -39.65625 16.625 -39.53125 17.5625 -39.28125 C 18.507812 -39.039062 19.472656 -38.710938 20.453125 -38.296875 C 20.941406 -38.109375 21.421875 -37.9375 21.890625 -37.78125 C 22.359375 -37.632812 22.78125 -37.5625 23.15625 -37.5625 C 24.0625 -37.5625 24.78125 -38.257812 25.3125 -39.65625 L 26.375 -39.65625 L 26.375 -26.78125 L 25.3125 -26.78125 C 25.113281 -28.769531 24.515625 -30.582031 23.515625 -32.21875 C 22.523438 -33.863281 21.285156 -35.15625 19.796875 -36.09375 C 18.304688 -37.03125 16.71875 -37.5 15.03125 -37.5 C 13.175781 -37.5 11.585938 -36.941406 10.265625 -35.828125 C 8.953125 -34.722656 8.296875 -33.378906 8.296875 -31.796875 C 8.296875 -29.953125 9.203125 -28.351562 11.015625 -27 C 12.296875 -26.0625 14.082031 -24.929688 16.375 -23.609375 C 18.414062 -22.367188 20.113281 -21.296875 21.46875 -20.390625 C 22.820312 -19.484375 24.082031 -18.503906 25.25 -17.453125 C 26.300781 -16.429688 27.132812 -15.257812 27.75 -13.9375 C 28.375 -12.625 28.6875 -11.273438 28.6875 -9.890625 C 28.6875 -7.960938 28.160156 -6.171875 27.109375 -4.515625 C 26.054688 -2.859375 24.613281 -1.550781 22.78125 -0.59375 C 20.957031 0.363281 18.957031 0.84375 16.78125 0.84375 C 15.382812 0.84375 14.148438 0.71875 13.078125 0.46875 C 12.003906 0.226562 10.882812 -0.0976562 9.71875 -0.515625 C 8.4375 -0.960938 7.472656 -1.1875 6.828125 -1.1875 C 5.816406 -1.1875 5.046875 -0.507812 4.515625 0.84375 L 3.5 0.84375 L 3.5 -12.203125 L 4.515625 -12.203125 C 5.160156 -8.847656 6.429688 -6.191406 8.328125 -4.234375 C 10.234375 -2.273438 12.691406 -1.296875 15.703125 -1.296875 C 17.847656 -1.296875 19.617188 -1.878906 21.015625 -3.046875 C 22.410156 -4.210938 23.109375 -5.679688 23.109375 -7.453125 C 23.109375 -8.359375 22.9375 -9.1875 22.59375 -9.9375 C 22.25 -10.695312 21.6875 -11.507812 20.90625 -12.375 C 20.1875 -13.125 19.164062 -13.941406 17.84375 -14.828125 C 16.53125 -15.710938 14.78125 -16.8125 12.59375 -18.125 C 10.75 -19.257812 9.335938 -20.15625 8.359375 -20.8125 C 7.378906 -21.46875 6.644531 -22.039062 6.15625 -22.53125 C 4.238281 -24.488281 3.28125 -26.84375 3.28125 -29.59375 C 3.28125 -31.476562 3.757812 -33.179688 4.71875 -34.703125 C 5.675781 -36.234375 6.984375 -37.441406 8.640625 -38.328125 C 10.296875 -39.210938 12.160156 -39.65625 14.234375 -39.65625 Z M 14.234375 -39.65625 "/></g></g></g><g fill="#ffffff" fill-opacity="1"><g transform="translate(31.770641, 40.68811)"><g/></g></g><g fill="#ffffff" fill-opacity="1"><g transform="translate(49.690036, 40.68811)"><g><path d="M 21.75 -39.65625 C 25.320312 -39.65625 28.613281 -38.75 31.625 -36.9375 C 34.644531 -35.132812 37.035156 -32.675781 38.796875 -29.5625 C 40.566406 -26.457031 41.453125 -23.0625 41.453125 -19.375 C 41.453125 -15.71875 40.566406 -12.335938 38.796875 -9.234375 C 37.035156 -6.128906 34.644531 -3.671875 31.625 -1.859375 C 28.613281 -0.0546875 25.320312 0.84375 21.75 0.84375 C 18.164062 0.84375 14.867188 -0.0546875 11.859375 -1.859375 C 8.847656 -3.671875 6.46875 -6.128906 4.71875 -9.234375 C 2.96875 -12.335938 2.09375 -15.71875 2.09375 -19.375 C 2.09375 -23.0625 2.96875 -26.457031 4.71875 -29.5625 C 6.46875 -32.675781 8.847656 -35.132812 11.859375 -36.9375 C 14.867188 -38.75 18.164062 -39.65625 21.75 -39.65625 Z M 9.15625 -19.375 C 9.15625 -15.757812 9.671875 -12.585938 10.703125 -9.859375 C 11.734375 -7.128906 13.203125 -5.019531 15.109375 -3.53125 C 17.015625 -2.039062 19.226562 -1.296875 21.75 -1.296875 C 24.269531 -1.296875 26.488281 -2.039062 28.40625 -3.53125 C 30.332031 -5.019531 31.8125 -7.128906 32.84375 -9.859375 C 33.882812 -12.585938 34.40625 -15.757812 34.40625 -19.375 C 34.40625 -22.914062 33.894531 -26.0625 32.875 -28.8125 C 31.851562 -31.5625 30.390625 -33.695312 28.484375 -35.21875 C 26.585938 -36.738281 24.320312 -37.5 21.6875 -37.5 C 19.09375 -37.5 16.851562 -36.726562 14.96875 -35.1875 C 13.082031 -33.644531 11.640625 -31.5 10.640625 -28.75 C 9.648438 -26 9.15625 -22.875 9.15625 -19.375 Z M 9.15625 -19.375 "/></g></g></g><g fill="#ffffff" fill-opacity="1"><g transform="translate(89.431895, 40.68811)"><g/></g></g><g fill="#ffffff" fill-opacity="1"><g transform="translate(111.268161, 40.68811)"><g><path d="M 19.765625 -37.78125 C 17.804688 -37.78125 16.40625 -37.46875 15.5625 -36.84375 C 14.71875 -36.226562 14.296875 -34.976562 14.296875 -33.09375 L 14.296875 -4.75 C 14.296875 -3.957031 14.453125 -3.390625 14.765625 -3.046875 C 15.085938 -2.710938 15.625 -2.546875 16.375 -2.546875 L 24.796875 -2.546875 C 26.753906 -2.546875 28.375 -2.796875 29.65625 -3.296875 C 30.9375 -3.804688 32.035156 -4.632812 32.953125 -5.78125 C 33.878906 -6.9375 34.773438 -8.566406 35.640625 -10.671875 L 36.609375 -10.34375 L 33.328125 0 L 2.375 0 L 2.375 -1.015625 L 2.765625 -1.015625 C 4.691406 -1.015625 6.078125 -1.351562 6.921875 -2.03125 C 7.765625 -2.707031 8.1875 -3.929688 8.1875 -5.703125 L 8.1875 -33.15625 C 8.1875 -34.882812 7.742188 -36.085938 6.859375 -36.765625 C 5.972656 -37.441406 4.59375 -37.78125 2.71875 -37.78125 L 2.375 -37.78125 L 2.375 -38.8125 L 19.765625 -38.8125 Z M 19.765625 -37.78125 "/></g></g></g><g fill="#ffffff" fill-opacity="1"><g transform="translate(141.219726, 40.68811)"><g/></g></g><g fill="#ffffff" fill-opacity="1"><g transform="translate(168.455661, 40.68811)"><g><path d="M 33.4375 -28.6875 C 33.4375 -26.320312 32.625 -24.28125 31 -22.5625 C 29.382812 -20.851562 26.921875 -19.582031 23.609375 -18.75 L 32.59375 -7.625 C 33.6875 -6.269531 34.609375 -5.1875 35.359375 -4.375 C 36.109375 -3.5625 37.039062 -2.828125 38.15625 -2.171875 C 39.269531 -1.515625 40.503906 -1.128906 41.859375 -1.015625 L 41.859375 0 L 31.75 0 L 17.109375 -18.1875 L 13.390625 -18.1875 L 13.390625 -5.59375 C 13.390625 -3.9375 13.8125 -2.757812 14.65625 -2.0625 C 15.5 -1.363281 16.828125 -1.015625 18.640625 -1.015625 L 18.859375 -1.015625 L 18.859375 0 L 1.921875 0 L 1.921875 -1.015625 C 3.722656 -1.015625 5.066406 -1.332031 5.953125 -1.96875 C 6.835938 -2.613281 7.28125 -3.765625 7.28125 -5.421875 L 7.28125 -33.5 C 7.28125 -35 6.835938 -36.085938 5.953125 -36.765625 C 5.066406 -37.441406 3.722656 -37.78125 1.921875 -37.78125 L 1.921875 -38.8125 L 20.046875 -38.8125 C 23.742188 -38.8125 26.898438 -37.976562 29.515625 -36.3125 C 32.128906 -34.65625 33.4375 -32.113281 33.4375 -28.6875 Z M 13.390625 -35.8125 L 13.390625 -20.109375 L 14.796875 -20.109375 C 18.597656 -20.109375 21.476562 -20.851562 23.4375 -22.34375 C 25.394531 -23.832031 26.375 -25.894531 26.375 -28.53125 C 26.375 -30.820312 25.628906 -32.773438 24.140625 -34.390625 C 22.660156 -36.015625 20.5625 -36.828125 17.84375 -36.828125 C 16.375 -36.828125 14.890625 -36.488281 13.390625 -35.8125 Z M 13.390625 -35.8125 "/></g></g></g><g fill="#ffffff" fill-opacity="1"><g transform="translate(198.880984, 40.68811)"><g/></g></g><g fill="#ffffff" fill-opacity="1"><g transform="translate(230.783786, 40.68811)"><g><path d="M 33.265625 -30.21875 L 32.3125 -30.21875 C 31.9375 -32.363281 31.238281 -33.953125 30.21875 -34.984375 C 29.195312 -36.023438 27.785156 -36.546875 25.984375 -36.546875 L 13.71875 -36.546875 L 13.71875 -21.578125 L 23.78125 -21.578125 C 25.582031 -21.578125 26.859375 -22.023438 27.609375 -22.921875 C 28.367188 -23.828125 28.769531 -25.257812 28.8125 -27.21875 L 29.828125 -27.21875 L 29.828125 -13.5625 L 28.8125 -13.5625 C 28.8125 -15.519531 28.429688 -16.96875 27.671875 -17.90625 C 26.921875 -18.84375 25.585938 -19.3125 23.671875 -19.3125 L 13.71875 -19.3125 L 13.71875 -5.140625 C 13.71875 -3.222656 14.472656 -2.265625 15.984375 -2.265625 L 25.921875 -2.265625 C 27.992188 -2.265625 29.820312 -2.894531 31.40625 -4.15625 C 32.988281 -5.414062 34.269531 -7.25 35.25 -9.65625 L 36.4375 -9.65625 L 33.265625 0 L 2.03125 0 L 2.03125 -1.015625 C 3.988281 -1.015625 5.410156 -1.34375 6.296875 -2 C 7.179688 -2.664062 7.625 -3.898438 7.625 -5.703125 L 7.625 -33.5 C 7.625 -35 7.179688 -36.085938 6.296875 -36.765625 C 5.410156 -37.441406 3.988281 -37.78125 2.03125 -37.78125 L 2.03125 -38.8125 L 32.8125 -38.8125 Z M 33.265625 -30.21875 "/></g></g></g><g fill="#ffffff" fill-opacity="1"><g transform="translate(250.668815, 40.68811)"><g/></g></g><g fill="#ffffff" fill-opacity="1"><g transform="translate(288.986911, 40.68811)"><g><path d="M 37.109375 -10.171875 L 37.109375 -33.4375 C 37.109375 -35.132812 36.804688 -36.273438 36.203125 -36.859375 C 35.597656 -37.441406 34.488281 -37.75 32.875 -37.78125 L 31.46875 -37.78125 L 31.46875 -38.8125 L 45.75 -38.8125 L 45.75 -37.78125 L 44.5625 -37.78125 C 43.0625 -37.78125 41.988281 -37.6875 41.34375 -37.5 C 40.707031 -37.3125 40.265625 -36.867188 40.015625 -36.171875 C 39.773438 -35.484375 39.65625 -34.347656 39.65625 -32.765625 L 39.65625 0.453125 L 38.859375 0.453125 L 11.125 -30.78125 L 11.125 -6.546875 C 11.125 -4.441406 11.546875 -2.992188 12.390625 -2.203125 C 13.242188 -1.410156 14.707031 -1.015625 16.78125 -1.015625 L 16.78125 0 L 2.765625 0 L 2.765625 -1.015625 L 3.109375 -1.015625 C 4.910156 -1.015625 6.28125 -1.34375 7.21875 -2 C 8.164062 -2.664062 8.640625 -3.882812 8.640625 -5.65625 L 8.640625 -33.265625 C 7.660156 -34.921875 6.550781 -36.085938 5.3125 -36.765625 C 4.070312 -37.441406 2.546875 -37.78125 0.734375 -37.78125 L 0.734375 -38.8125 L 12.03125 -38.8125 Z M 37.109375 -10.171875 "/></g></g></g></g></g></g></g></g></svg>